<svg width="36" height="36" viewBox="0 0 36 36" fill="none" xmlns="http://www.w3.org/2000/svg">
<rect width="36" height="36" fill="white" style="mix-blend-mode:multiply"/>
<path d="M18.6888 2.49058C18.4891 2.33476 18.2431 2.25012 17.9898 2.25012C17.7365 2.25012 17.4905 2.33476 17.2908 2.49058L1.125 15.0969L2.52304 16.865L4.5 15.3236V29.2501C4.50122 29.8464 4.73866 30.418 5.16036 30.8397C5.58205 31.2614 6.15364 31.4988 6.75 31.5001C6.75 31.5001 28.6536 31.5012 29.25 31.5001C29.8464 31.499 30.4181 31.2616 30.8398 30.8398C31.2615 30.4181 31.4989 29.8465 31.5 29.2501V15.3338L33.477 16.8751L34.875 15.1068L18.6888 2.49058ZM20.25 29.2501H15.75V20.2501H20.25V29.2501ZM22.5 29.2501V20.2501C22.4993 19.6535 22.262 19.0816 21.8402 18.6598C21.4184 18.238 20.8465 18.0007 20.25 18.0001H15.75C15.1534 18.0007 14.5815 18.2379 14.1597 18.6597C13.7378 19.0816 13.5006 19.6535 13.5 20.2501V29.2501H6.75V13.5692L18 4.8055L29.25 13.5811V29.2501H22.5Z" fill="#161616"/>
</svg>
