<svg width="121" height="121" viewBox="0 0 121 121" fill="none" xmlns="http://www.w3.org/2000/svg">
<rect width="121" height="121" fill="white" style="mix-blend-mode:multiply"/>
<path d="M71.8438 52.9375C74.0873 52.9375 76.2805 52.2722 78.146 51.0257C80.0115 49.7793 81.4654 48.0076 82.324 45.9348C83.1826 43.862 83.4072 41.5812 82.9695 39.3807C82.5318 37.1802 81.4514 35.159 79.865 33.5725C78.2785 31.9861 76.2573 30.9057 74.0568 30.468C71.8563 30.0303 69.5755 30.2549 67.5027 31.1135C65.4299 31.9721 63.6582 33.426 62.4118 35.2915C61.1653 37.157 60.5 39.3502 60.5 41.5938C60.5 44.6023 61.6951 47.4876 63.8225 49.615C65.9499 51.7424 68.8352 52.9375 71.8438 52.9375ZM71.8438 37.8125C72.5916 37.8125 73.3227 38.0343 73.9445 38.4498C74.5663 38.8652 75.051 39.4558 75.3372 40.1467C75.6234 40.8377 75.6982 41.5979 75.5523 42.3314C75.4064 43.0649 75.0463 43.7387 74.5175 44.2675C73.9887 44.7963 73.3149 45.1564 72.5814 45.3023C71.8479 45.4482 71.0877 45.3734 70.3967 45.0872C69.7058 44.801 69.1152 44.3163 68.6998 43.6945C68.2843 43.0727 68.0625 42.3416 68.0625 41.5938C68.0625 40.5909 68.4609 39.6291 69.17 38.92C69.8791 38.2109 70.8409 37.8125 71.8438 37.8125Z" fill="#161616"/>
<path d="M98.3125 15.125H22.6875C20.6818 15.125 18.7582 15.9218 17.34 17.34C15.9218 18.7582 15.125 20.6818 15.125 22.6875V98.3125C15.125 100.318 15.9218 102.242 17.34 103.66C18.7582 105.078 20.6818 105.875 22.6875 105.875H98.3125C100.318 105.875 102.242 105.078 103.66 103.66C105.078 102.242 105.875 100.318 105.875 98.3125V22.6875C105.875 20.6818 105.078 18.7582 103.66 17.34C102.242 15.9218 100.318 15.125 98.3125 15.125ZM98.3125 98.3125H22.6875V75.625L41.5938 56.7188L62.7309 77.8559C64.1479 79.2645 66.0646 80.0551 68.0625 80.0551C70.0604 80.0551 71.9771 79.2645 73.3941 77.8559L79.4062 71.8438L98.3125 90.75V98.3125ZM98.3125 80.0491L84.7378 66.4744C83.3209 65.0658 81.4042 64.2753 79.4062 64.2753C77.4083 64.2753 75.4916 65.0658 74.0747 66.4744L68.0625 72.4866L46.9253 51.3494C45.5084 49.9408 43.5917 49.1503 41.5938 49.1503C39.5958 49.1503 37.6791 49.9408 36.2622 51.3494L22.6875 64.9241V22.6875H98.3125V80.0491Z" fill="#161616"/>
</svg>
