<svg width="36" height="36" viewBox="0 0 36 36" fill="none" xmlns="http://www.w3.org/2000/svg">
<rect width="36" height="36" fill="white" style="mix-blend-mode:multiply"/>
<path d="M19.125 11.25H16.875V20.25H19.125V11.25Z" fill="#161616"/>
<path d="M24.75 15.75H22.5V20.25H24.75V15.75Z" fill="#161616"/>
<path d="M13.5 13.5H11.25V20.25H13.5V13.5Z" fill="#161616"/>
<path d="M28.125 4.5H19.125V2.25H16.875V4.5H7.875C7.27826 4.5 6.70597 4.73705 6.28401 5.15901C5.86205 5.58097 5.625 6.15326 5.625 6.75V22.5C5.625 23.0967 5.86205 23.669 6.28401 24.091C6.70597 24.5129 7.27826 24.75 7.875 24.75H16.875V31.5H12.375V33.75H23.625V31.5H19.125V24.75H28.125C28.7217 24.75 29.294 24.5129 29.716 24.091C30.1379 23.669 30.375 23.0967 30.375 22.5V6.75C30.375 6.15326 30.1379 5.58097 29.716 5.15901C29.294 4.73705 28.7217 4.5 28.125 4.5ZM28.125 22.5H7.875V6.75H28.125V22.5Z" fill="#161616"/>
</svg>
