<svg width="36" height="36" viewBox="0 0 36 36" fill="none" xmlns="http://www.w3.org/2000/svg">
<rect width="36" height="36" fill="white" style="mix-blend-mode:multiply"/>
<path d="M27 4.5C27 3.25736 25.9926 2.25 24.75 2.25C23.5074 2.25 22.5 3.25736 22.5 4.5C22.5 5.74264 23.5074 6.75 24.75 6.75C25.9926 6.75 27 5.74264 27 4.5Z" fill="#161616"/>
<path d="M12.375 18C12.1525 18 11.9351 17.9339 11.7501 17.8103C11.5651 17.6867 11.421 17.511 11.3359 17.3055C11.2507 17.0999 11.2285 16.8738 11.2718 16.6556C11.3152 16.4374 11.4223 16.237 11.5796 16.0796L19.4546 8.20463C19.5584 8.09718 19.6825 8.01147 19.8198 7.95251C19.957 7.89355 20.1047 7.86252 20.254 7.86122C20.4034 7.85992 20.5516 7.88838 20.6898 7.94495C20.8281 8.00152 20.9537 8.08505 21.0593 8.19068C21.1649 8.29631 21.2485 8.42192 21.305 8.56018C21.3616 8.69844 21.3901 8.84657 21.3888 8.99595C21.3875 9.14533 21.3564 9.29295 21.2975 9.4302C21.2385 9.56746 21.1528 9.6916 21.0454 9.79537L13.1704 17.6704C13.0661 17.775 12.9421 17.858 12.8056 17.9146C12.6691 17.9712 12.5228 18.0002 12.375 18Z" fill="#161616"/>
<path d="M26.6704 27.3296C25.2088 25.9589 23.3492 25.0886 21.3604 24.8445C21.5845 24.6599 21.8026 24.4661 22.0103 24.2584C23.378 22.7864 24.2901 20.9497 24.6361 18.9703C24.9822 16.991 24.7475 14.9538 23.9604 13.105L21.849 13.8895C23.0977 17.2425 22.5629 20.5242 20.4177 22.6669C19.5963 23.4564 18.6066 24.0492 17.523 24.4009C16.4393 24.7526 15.2901 24.8539 14.1616 24.6972C11.7068 24.4119 9.41974 23.3079 7.66924 21.5634C4.32495 18.2222 3.08385 12.3074 6.56617 8.82844C8.71132 6.68497 11.9962 6.15094 15.3517 7.39856L16.1378 5.28919C11.9943 3.74962 7.71649 4.49561 4.97329 7.23724C0.537748 11.6681 1.96267 19.0448 6.07579 23.1548C8.19303 25.2608 10.9579 26.5923 13.9245 26.9348C14.1607 26.9595 14.3917 26.9611 14.6245 26.9721V27H20.2459C22.0309 27.0604 23.7395 27.7392 25.0792 28.9204L29.9091 33.75L31.5 32.1591L26.6704 27.3296Z" fill="#161616"/>
</svg>
