<svg width="36" height="36" viewBox="0 0 36 36" fill="none" xmlns="http://www.w3.org/2000/svg">
<rect width="36" height="36" fill="white" style="mix-blend-mode:multiply"/>
<path d="M18 4.5C19.1125 4.5 20.2001 4.8299 21.1251 5.44798C22.0501 6.06607 22.7711 6.94457 23.1968 7.97241C23.6226 9.00024 23.734 10.1312 23.5169 11.2224C23.2999 12.3135 22.7641 13.3158 21.9775 14.1025C21.1908 14.8891 20.1885 15.4249 19.0974 15.6419C18.0062 15.859 16.8752 15.7476 15.8474 15.3218C14.8196 14.8961 13.9411 14.1751 13.323 13.2501C12.7049 12.3251 12.375 11.2375 12.375 10.125C12.375 8.63316 12.9676 7.20242 14.0225 6.14752C15.0774 5.09263 16.5082 4.5 18 4.5ZM18 2.25C16.4425 2.25 14.9199 2.71186 13.6249 3.57718C12.3298 4.44249 11.3205 5.6724 10.7244 7.11137C10.1284 8.55034 9.97246 10.1337 10.2763 11.6613C10.5802 13.1889 11.3302 14.5921 12.4315 15.6935C13.5329 16.7948 14.9361 17.5448 16.4637 17.8487C17.9913 18.1525 19.5747 17.9966 21.0136 17.4006C22.4526 16.8045 23.6825 15.7952 24.5478 14.5001C25.4131 13.2051 25.875 11.6825 25.875 10.125C25.875 8.03642 25.0453 6.03338 23.5685 4.55653C22.0916 3.07969 20.0886 2.25 18 2.25Z" fill="#161616"/>
<path d="M29.25 33.75H27V28.125C27 27.3863 26.8545 26.6549 26.5718 25.9724C26.2891 25.2899 25.8748 24.6699 25.3525 24.1475C24.8301 23.6252 24.2101 23.2109 23.5276 22.9282C22.8451 22.6455 22.1137 22.5 21.375 22.5H14.625C13.1332 22.5 11.7024 23.0926 10.6475 24.1475C9.59263 25.2024 9 26.6332 9 28.125V33.75H6.75V28.125C6.75 26.0364 7.57969 24.0334 9.05653 22.5565C10.5334 21.0797 12.5364 20.25 14.625 20.25H21.375C23.4636 20.25 25.4666 21.0797 26.9435 22.5565C28.4203 24.0334 29.25 26.0364 29.25 28.125V33.75Z" fill="#161616"/>
</svg>
